<svg width="32" height="32" viewBox="0 0 33 32" fill="none" xmlns="http://www.w3.org/2000/svg">
    <rect x="0.5" width="32" height="32" rx="16" fill="#60B238"/>
    <path d="M16.875 14.7188C18.9375 14.7188 20.4062 16.1562 20.4062 18.2188C20.4062 20.4688 18.5625 22.1562 16.0312 22.1562C13.9688 22.1562 12.375 21.2188 11.6562 19.5625L13.0938 18.7188C13.6562 19.9375 14.625 20.5625 15.9375 20.5625C17.5625 20.5625 18.5625 19.6562 18.5625 18.2188C18.5625 16.9062 17.6875 16.0312 16.4062 16.0312C15.9062 16.0312 15.4688 16.1562 15.125 16.375L14.1875 15.375L17.6562 11.8125H12.1875V10.125H20.0312V11.5L16.875 14.7188Z" fill="white"/>
</svg>
