<svg width="208" height="35" viewBox="0 0 208 35" fill="none" xmlns="http://www.w3.org/2000/svg">
    <g clip-path="url(#clip0_235_596)">
        <path d="M39.564 30.5963H34.4337V12.458H52.9028V30.5963H47.7736V15.9817H39.564V30.5963Z" fill="#60B238"/>
        <path d="M55.3907 17.4323V35.3907H60.1186V29.2493C61.7029 30.9603 64.284 31.0896 64.9061 31.0896C69.4151 31.0896 72.1821 28.2122 72.1821 24.0404C72.1821 19.6875 69.4453 16.9409 64.9998 16.9409C63.8792 16.9409 61.7029 17.1223 59.8993 19.0144H59.8064L59.837 17.4323H55.3907ZM59.8993 23.9882C59.8993 20.3096 62.1701 19.5843 63.6006 19.5843C64.9998 19.5843 67.2694 20.3096 67.2694 23.9882C67.2694 26.2695 66.306 28.4469 63.6006 28.4469C60.8333 28.4469 59.8993 26.2695 59.8993 23.9882Z" fill="#60B238"/>
        <path d="M83.9035 29.0168C82.163 30.648 80.4861 31.0895 78.6186 31.0895C73.5192 31.0895 73.3318 27.254 73.3318 25.6738V17.4321H78.0585V25.0509C78.0585 27.669 78.9625 28.4468 80.7022 28.4468C83.6858 28.4468 83.9035 25.7773 83.9035 24.8185V17.4321H88.6321V30.5962H83.9035V29.0168Z" fill="#60B238"/>
        <path d="M95.4106 25.0509H98.3027C100.54 25.0509 101.007 25.7252 101.007 26.6066C101.007 27.1761 100.694 27.954 98.3613 27.954H95.4106V25.0509ZM90.684 17.4321V30.5962H100.075C103.495 30.5962 105.857 29.9227 105.857 27.2279C105.857 25.1548 104.705 24.2481 102.095 23.7821V23.7039C103.805 23.4707 105.299 22.4079 105.299 20.6205C105.299 17.4321 101.567 17.4321 100.105 17.4321H90.684ZM95.4106 20.0767H97.9584C99.296 20.0767 100.445 20.2838 100.445 21.3712C100.445 22.5643 98.6425 22.59 97.8654 22.59H95.4106V20.0767Z" fill="#60B238"/>
        <path d="M111.827 21.6827C111.827 19.7393 113.879 19.5843 114.719 19.5843C115.248 19.5843 117.206 19.6104 117.269 21.3203C117.269 21.4499 117.269 21.5535 117.269 21.6827C117.176 22.9783 115.932 22.7194 112.451 23.1598C109.588 23.5483 106.572 24.2732 106.572 27.2802C106.572 28.3687 107.039 31.0896 112.076 31.0896C114.005 31.0896 116.12 30.5964 117.362 29.3015H117.458L117.86 30.5964H122.835V30.3639C121.933 30.1821 121.871 29.3015 121.902 27.8758L121.995 21.8634C122.027 20.3357 121.871 16.9409 114.751 16.9409C113.04 16.9409 107.536 17.0959 107.319 21.6827H111.827ZM117.3 25.155C117.3 27.7984 114.999 28.4469 113.85 28.4469C112.977 28.4469 111.423 28.1608 111.423 26.9177C111.423 25.4399 113.195 25.155 114.191 25.0253C116.026 24.766 115.87 24.8443 117.3 24.3254V25.155Z" fill="#60B238"/>
        <path d="M122.524 20.0767V17.4321H137.697V20.0767H132.474V30.5962H127.748V20.0767H122.524Z" fill="#60B238"/>
        <path d="M143.731 15.9817H155.515V12.458H138.599V30.5963H148.984C154.023 30.5963 157.255 28.8355 157.255 25.1289C157.255 19.3254 150.788 19.195 148.984 19.195H143.731V15.9817ZM143.731 22.7194H147.989C149.236 22.7194 151.722 22.8494 151.722 25.0253C151.722 26.7359 149.917 27.0723 147.897 27.0723H143.731V22.7194Z" fill="#60B238"/>
        <path d="M163.413 21.6827C163.413 19.7393 165.467 19.5843 166.304 19.5843C166.833 19.5843 168.793 19.6104 168.856 21.3203C168.856 21.4499 168.856 21.5535 168.856 21.6827C168.762 22.9783 167.519 22.7194 164.033 23.1598C161.174 23.5483 158.159 24.2732 158.159 27.2802C158.159 28.3687 158.624 31.0896 163.661 31.0896C165.589 31.0896 167.704 30.5964 168.948 29.3015H169.04L169.445 30.5964H174.42V30.3639C173.521 30.1821 173.456 29.3015 173.488 27.8758L173.581 21.8634C173.612 20.3357 173.456 16.9409 166.335 16.9409C164.627 16.9409 159.121 17.0959 158.904 21.6827H163.413ZM168.885 25.155C168.885 27.7984 166.584 28.4469 165.435 28.4469C164.564 28.4469 163.009 28.1608 163.009 26.9177C163.009 25.4399 164.78 25.155 165.775 25.0253C167.611 24.766 167.455 24.8443 168.885 24.3254V25.155Z" fill="#60B238"/>
        <path d="M180.328 30.5962H175.602V17.4321H180.328V22.3822H186.019V17.4321H190.746V30.5962H186.019V25.0252H180.328V30.5962Z" fill="#60B238"/>
        <path d="M202.685 17.4321H207.939L201.441 23.5992L208.251 30.5962H202.715L197.616 24.8442H197.524V30.5962H192.799V17.4321H197.524V22.7193H197.616L202.685 17.4321Z" fill="#60B238"/>
        <path d="M0.108398 30.6433H11.947V18.8047H0.108398V30.6433Z" fill="#373435"/>
        <path d="M24.1416 6.62717C24.1416 10.6527 24.1416 20.3616 24.1416 24.3872C23.0172 24.3872 22.8192 24.3872 21.7265 24.3872C20.6837 15.6039 15.1649 10.0866 6.38012 9.0438C6.38012 7.95114 6.38012 7.75385 6.38012 6.62717C10.4061 6.62717 20.1157 6.62717 24.1416 6.62717ZM0.12085 0.368652V15.1039H3.25143C11.4897 15.1039 15.6668 19.2803 15.6668 27.5159V30.6464H30.4009V0.368652H0.12085Z" fill="#60B238"/>
    </g>
    <defs>
        <clipPath id="clip0_235_596">
            <rect width="208" height="35" fill="white"/>
        </clipPath>
    </defs>
</svg>
