<svg width="143" height="81" viewBox="0 0 143 81" fill="none" xmlns="http://www.w3.org/2000/svg">
    <g clip-path="url(#clip0_1_582)">
        <mask id="mask0_1_582" style="mask-type:luminance" maskUnits="userSpaceOnUse" x="97" y="4" width="29" height="24">
            <path d="M97.2 4.09686H125.6V27.4H97.2V4.09686Z" fill="white"/>
        </mask>
        <g mask="url(#mask0_1_582)">
            <path d="M120.438 27.0422C120.438 27.0422 120.459 26.9984 120.502 26.9125C120.544 26.8281 120.613 26.7015 120.691 26.5375C120.847 26.2109 121.073 25.7312 121.3 25.1109C121.361 24.9594 121.417 24.7937 121.477 24.6234C121.533 24.4515 121.591 24.2719 121.645 24.0844C121.705 23.8984 121.756 23.7015 121.811 23.5C121.861 23.2953 121.914 23.0844 121.961 22.8672C122.152 21.9953 122.295 21.0094 122.347 19.9437C122.397 18.8797 122.352 17.7359 122.161 16.5734C121.972 15.4125 121.631 14.2359 121.109 13.1422C120.584 12.05 119.87 11.05 118.972 10.2312C118.073 9.41248 116.984 8.77654 115.767 8.33904C115.692 8.30935 115.614 8.28435 115.536 8.25935L115.305 8.18123C115.148 8.13435 114.992 8.08748 114.833 8.04373L114.592 7.98279L114.472 7.95154C114.481 7.95154 114.431 7.94217 114.488 7.9531L114.47 7.94842L114.434 7.94217L114.364 7.92654L114.084 7.86873L113.864 7.82967L113.753 7.81092L113.633 7.79373C113.553 7.78279 113.472 7.76873 113.392 7.75935C113.231 7.74217 113.07 7.72029 112.908 7.70935C112.584 7.68123 112.261 7.67185 111.938 7.67342C110.641 7.67967 109.347 7.91717 108.123 8.3281C106.9 8.73592 105.742 9.29998 104.698 9.94842C103.652 10.5937 102.709 11.3156 101.889 12.0453C101.478 12.4109 101.095 12.7781 100.745 13.1406C100.394 13.5031 100.07 13.8609 99.7813 14.2109C99.4906 14.5578 99.2266 14.8937 98.9984 15.2156C98.7672 15.5359 98.5625 15.8375 98.3906 16.1187C98.0422 16.6797 97.8078 17.15 97.6594 17.4781C97.5859 17.6437 97.5297 17.7703 97.4969 17.8578C97.4609 17.9453 97.4438 17.9906 97.4438 17.9906C97.4438 17.9906 97.4453 17.9422 97.4484 17.8484C97.4516 17.7531 97.4609 17.614 97.4797 17.4297C97.5203 17.0656 97.6047 16.5265 97.7969 15.8578C97.8938 15.5265 98.0141 15.1578 98.1672 14.7672C98.3219 14.3765 98.5016 13.9578 98.7203 13.5219C98.9406 13.0875 99.1922 12.6312 99.4813 12.164C99.7719 11.6969 100.1 11.2203 100.467 10.7375C101.205 9.77498 102.102 8.79685 103.181 7.88123C104.258 6.96717 105.52 6.11404 106.964 5.44685C108.405 4.7781 110.039 4.3031 111.763 4.16248C112.192 4.1281 112.627 4.11248 113.063 4.12029C113.281 4.12029 113.5 4.13279 113.719 4.14373C113.828 4.14998 113.938 4.16092 114.047 4.17029L114.211 4.18435L114.384 4.20467L114.731 4.24842L115.016 4.2906L115.086 4.30154L115.122 4.30623L115.191 4.31873L115.35 4.34685L115.672 4.40779C115.886 4.45154 116.1 4.50154 116.314 4.55154C116.527 4.61092 116.741 4.66092 116.953 4.73123C118.648 5.24217 120.294 6.14998 121.606 7.39529C122.259 8.0156 122.841 8.70467 123.316 9.43904C123.797 10.1703 124.178 10.9437 124.478 11.7203C125.069 13.2812 125.316 14.8594 125.33 16.325C125.347 17.7922 125.138 19.1547 124.806 20.3578C124.477 21.5625 124.02 22.6094 123.534 23.4797C123.047 24.3515 122.527 25.0453 122.061 25.5734C121.592 26.1015 121.183 26.4672 120.891 26.7015C120.747 26.8219 120.631 26.9015 120.555 26.9578C120.477 27.014 120.438 27.0422 120.438 27.0422Z" fill="#2B59FF"/>
        </g>
        <path d="M97.5141 12.1719C97.5141 12.1719 97.4641 12.1266 97.3656 12.0391C97.2672 11.9516 97.1172 11.8234 96.925 11.6594C96.7297 11.4953 96.4875 11.2984 96.1984 11.0766C96.0547 10.9641 95.8969 10.8484 95.7266 10.7266C95.5594 10.6047 95.3781 10.4781 95.1844 10.35C94.7953 10.0953 94.3609 9.82501 93.875 9.56251C93.3875 9.30469 92.8547 9.04532 92.2719 8.82188C91.6875 8.60157 91.0594 8.40001 90.3891 8.26094C89.7188 8.12188 89.0094 8.03282 88.275 8.02188C87.5391 8.00938 86.7781 8.07188 86.0047 8.21563C85.9078 8.23594 85.8109 8.25157 85.7141 8.27501L85.5688 8.30626C85.5719 8.30626 85.5344 8.31251 85.5719 8.30626L85.5109 8.32032L85.4297 8.34063C85.3219 8.36563 85.2141 8.39219 85.1063 8.41719C85.0156 8.44376 84.9234 8.47032 84.8313 8.49688C84.7406 8.52032 84.6406 8.55469 84.5453 8.58438C84.4484 8.61563 84.35 8.64532 84.2547 8.68126C84.1594 8.71407 84.0625 8.74844 83.9672 8.78282C83.8719 8.82032 83.7766 8.85782 83.6813 8.89532C82.9234 9.20782 82.1906 9.60001 81.5234 10.0953C80.8531 10.5875 80.2422 11.1719 79.7203 11.8438C78.6688 13.1797 77.975 14.8609 77.7188 16.6594C77.4594 18.4578 77.6313 20.3609 78.2 22.1359C78.3438 22.5781 78.5094 23.0156 78.6984 23.4406C78.8875 23.8656 79.1047 24.2781 79.3375 24.6797C79.5719 25.0797 79.8281 25.4656 80.1047 25.8359L80.1563 25.9047L80.1828 25.9406C80.1578 25.9094 80.1844 25.9422 80.1828 25.9406L80.1984 25.9609L80.3219 26.1188L80.4453 26.2781L80.5547 26.4109C80.6922 26.5844 80.8547 26.7719 81.0125 26.9516C82.2844 28.4047 83.7875 29.6734 85.3484 30.8547C86.9094 32.0375 88.5219 33.1422 90.0359 34.2734C91.55 35.4016 92.9641 36.5594 94.1625 37.7578C94.7609 38.3547 95.3078 38.9594 95.7953 39.5594C96.2797 40.1625 96.7094 40.7563 97.0797 41.3344C97.8203 42.4938 98.3344 43.5719 98.6813 44.4781C98.8594 44.9297 98.9938 45.3406 99.1031 45.6984C99.1578 45.8766 99.2031 46.0453 99.2469 46.1969C99.2906 46.35 99.3203 46.4906 99.3516 46.6141C99.4156 46.8625 99.4516 47.0578 99.4797 47.1875C99.5063 47.3172 99.5188 47.3828 99.5188 47.3828C99.5188 47.3828 99.4859 47.3234 99.4219 47.2078C99.3578 47.0922 99.2656 46.9203 99.1375 46.7C99.0125 46.4781 98.8531 46.2094 98.6625 45.8969C98.5641 45.7422 98.4625 45.575 98.3469 45.4C98.2891 45.3141 98.2313 45.2234 98.1703 45.1313C98.1094 45.0391 98.0422 44.9469 97.9766 44.85C97.9109 44.7531 97.8422 44.6563 97.7688 44.5578C97.6969 44.4578 97.6234 44.3578 97.5484 44.2531C97.4719 44.1516 97.3922 44.0469 97.3109 43.9406C97.2297 43.8344 97.1422 43.7297 97.0563 43.6203C96.7047 43.1891 96.3188 42.7328 95.875 42.2766C95 41.3516 93.9219 40.4141 92.6672 39.4922C91.4109 38.5688 89.9688 37.6703 88.3906 36.7438C86.8156 35.8125 85.0984 34.8516 83.3438 33.7047C82.9047 33.4188 82.4656 33.1172 82.025 32.8047C81.8063 32.6469 81.5859 32.4859 81.3672 32.3234C81.15 32.1563 80.9313 31.9875 80.7156 31.8141C79.8484 31.1203 78.9984 30.3547 78.2047 29.5063C78.0063 29.2906 77.8141 29.0813 77.6109 28.8422L77.4625 28.6688L77.2078 28.3594L77.1609 28.3031L77.1266 28.2578L77.0563 28.1672C76.6828 27.6859 76.3359 27.1828 76.0188 26.6594C75.6984 26.1359 75.4172 25.5906 75.1625 25.0313C74.9094 24.4719 74.6875 23.8984 74.5031 23.3109C73.7594 20.9688 73.5813 18.4453 74.0219 16.0453C74.2391 14.8453 74.6156 13.6781 75.1391 12.5906C75.4016 12.0469 75.6984 11.5234 76.0328 11.0281C76.3656 10.5328 76.7328 10.0641 77.1281 9.62813C77.525 9.19376 77.95 8.79376 78.3953 8.42813C78.8422 8.06251 79.3109 7.73751 79.7906 7.44844C80.7516 6.86876 81.7641 6.45469 82.7641 6.17032C82.8906 6.13751 83.0141 6.10313 83.1391 6.07032C83.2641 6.03907 83.3891 6.01094 83.5141 5.98282C83.6375 5.95313 83.7625 5.93126 83.8859 5.90782C84.0109 5.88438 84.1297 5.85938 84.2609 5.84063C84.3891 5.82188 84.5188 5.80157 84.6453 5.78126C84.7609 5.76719 84.8688 5.75626 84.9813 5.74376L85.0641 5.73594L85.1047 5.73126L85.125 5.72813C85.1766 5.72032 85.1531 5.72501 85.1703 5.72344L85.3516 5.70782C85.4734 5.69532 85.5938 5.69063 85.7141 5.68126C86.1953 5.65313 86.6703 5.65469 87.1344 5.67969C87.5984 5.70469 88.0516 5.75626 88.4906 5.82969C88.9297 5.90157 89.3531 5.99844 89.7609 6.11407C90.1672 6.22657 90.5578 6.35938 90.9281 6.50782C91.6688 6.80313 92.3391 7.14532 92.9297 7.51719C93.5219 7.88594 94.0438 8.27032 94.4969 8.65626C94.9516 9.03907 95.3422 9.41563 95.675 9.77032C95.8422 9.94844 95.9953 10.1188 96.1375 10.2813C96.2766 10.4453 96.4063 10.6016 96.5219 10.7484C96.7547 11.0422 96.9406 11.3 97.0875 11.5109C97.2344 11.7219 97.3391 11.8891 97.4094 12.0016C97.4797 12.1141 97.5141 12.1719 97.5141 12.1719Z" fill="#2B59FF"/>
        <mask id="mask1_1_582" style="mask-type:luminance" maskUnits="userSpaceOnUse" x="100" y="22" width="27" height="31">
            <path d="M100.53 22.8516H126.378V52.3969H100.53V22.8516Z" fill="white"/>
        </mask>
        <g mask="url(#mask1_1_582)">
            <path d="M124.144 27.0406C120.245 39.2391 105.031 38.4781 110.111 36.1281C115.5 33.6344 116.045 26.7922 113.773 29.7375C110.948 33.4 107.553 32.3922 103.348 36.925C98.0578 42.625 101.866 52.4047 101.866 52.4047C103.095 46.2625 111.9 43.1469 119.611 38.0547C127.32 32.9625 128.041 14.8406 124.144 27.0406Z" fill="#F9CF01"/>
        </g>
        <path d="M15.2188 23.6764V19.1139H31.2625V23.6764H25.8438V41.9326H20.6438V23.6764H15.2188Z" fill="#2B59FF"/>
        <path d="M35.359 27.7389L38.8152 35.4576L42.2715 27.7389H48.084L40.4777 41.9326H37.159L29.5465 27.7389H35.359Z" fill="#2B59FF"/>
        <path d="M48.2772 19.8327C48.8475 19.2577 49.5287 18.9702 50.3209 18.9702C51.1162 18.9702 51.7991 19.2577 52.3709 19.8327C52.9412 20.4045 53.2272 21.0858 53.2272 21.8764C53.2272 22.6686 52.9412 23.3514 52.3709 23.9264C51.7991 24.4983 51.1162 24.7827 50.3209 24.7827C49.5287 24.7827 48.8475 24.4983 48.2772 23.9264C47.7053 23.3514 47.4209 22.6686 47.4209 21.8764C47.4209 21.0858 47.7053 20.4045 48.2772 19.8327ZM47.8084 27.7389V41.9327H52.7022V27.7389H47.8084Z" fill="#2B59FF"/>
        <path d="M65.5351 27.7389H71.1788L60.0288 49.1264H54.3913L59.2851 39.7201L52.5601 27.7389H58.2038L62.1601 35.0201L65.5351 27.7389Z" fill="#2B59FF"/>
        <path d="M20.2563 53.8389L23.7125 61.5577L27.1688 53.8389H32.9813L25.375 68.0327H22.0563L14.4438 53.8389H20.2563Z" fill="#F9CF01"/>
        <path d="M40.2557 57.4389C39.3338 57.4389 38.5401 57.7811 37.8744 58.4639C37.2119 59.1436 36.8807 59.9639 36.8807 60.9264C36.8807 61.9014 37.2119 62.7311 37.8744 63.4139C38.5401 64.0983 39.3338 64.4389 40.2557 64.4389C40.6963 64.4389 41.1151 64.3858 41.5119 64.2764C41.9073 64.1639 42.1994 64.0514 42.3869 63.9389L42.6307 63.7701L44.2932 67.1764C44.1635 67.2686 43.9823 67.3826 43.7494 67.5201C43.5198 67.6576 42.9948 67.8451 42.1744 68.0826C41.3573 68.3233 40.4776 68.4451 39.5369 68.4451C37.4526 68.4451 35.6213 67.7139 34.0432 66.2514C32.4682 64.7858 31.6807 63.0264 31.6807 60.9764C31.6807 58.9139 32.4682 57.142 34.0432 55.6576C35.6213 54.1701 37.4526 53.4264 39.5369 53.4264C40.4776 53.4264 41.3448 53.5373 42.1369 53.7576C42.9276 53.9795 43.4901 54.1998 43.8244 54.4201L44.2932 54.7576L42.6307 58.1014C42.0213 57.6608 41.2307 57.4389 40.2557 57.4389Z" fill="#F9CF01"/>
        <path d="M44.904 68.0326V44.2451H49.7978V55.3326H49.854C51.1243 54.0623 52.479 53.4264 53.9165 53.4264C54.6196 53.4264 55.3181 53.5201 56.0103 53.7076C56.7009 53.892 57.3634 54.1764 57.9978 54.5639C58.6353 54.9483 59.1509 55.4951 59.5478 56.2076C59.9431 56.917 60.1415 57.742 60.1415 58.6826V68.0326H55.2478V60.0076C55.2478 59.2701 55.0118 58.6264 54.5415 58.0764C54.0696 57.5233 53.4571 57.2451 52.704 57.2451C51.9665 57.2451 51.2978 57.5311 50.6978 58.1014C50.0978 58.6733 49.7978 59.3076 49.7978 60.0076V68.0326H44.904Z" fill="#F9CF01"/>
        <path d="M72.561 53.8389H78.2047L67.0547 75.2264H61.4172L66.311 65.8202L59.586 53.8389H65.2297L69.186 61.1202L72.561 53.8389Z" fill="#F9CF01"/>
        <path d="M77.9309 68.0326V53.8389H82.8246V55.3326H82.8809C84.1512 54.0623 85.5059 53.4264 86.9434 53.4264C87.6465 53.4264 88.345 53.5201 89.0371 53.7076C89.7278 53.892 90.3903 54.1764 91.0246 54.5639C91.6621 54.9483 92.1778 55.4951 92.5746 56.2076C92.97 56.917 93.1684 57.742 93.1684 58.6826V68.0326H88.2746V60.0076C88.2746 59.2701 88.0387 58.6264 87.5684 58.0764C87.0965 57.5233 86.484 57.2451 85.7309 57.2451C84.9934 57.2451 84.3246 57.5311 83.7246 58.1014C83.1246 58.6733 82.8246 59.3076 82.8246 60.0076V68.0326H77.9309Z" fill="#F9CF01"/>
        <path d="M96.1691 66.3451C94.5941 64.9451 93.8066 63.1483 93.8066 60.9514C93.8066 58.7561 94.6269 56.9545 96.2691 55.5451C97.9097 54.1326 99.9378 53.4264 102.35 53.4264C104.728 53.4264 106.735 54.1373 108.369 55.5576C110.002 56.9795 110.819 58.7764 110.819 60.9514C110.819 63.1264 110.021 64.9201 108.425 66.3326C106.828 67.742 104.803 68.4451 102.35 68.4451C99.8081 68.4451 97.7472 67.7451 96.1691 66.3451ZM99.9566 58.5451C99.3222 59.1701 99.0066 59.9733 99.0066 60.9514C99.0066 61.9311 99.3097 62.7295 99.9191 63.3451C100.527 63.9623 101.328 64.2701 102.325 64.2701C103.283 64.2701 104.071 63.9576 104.688 63.3326C105.308 62.7045 105.619 61.9108 105.619 60.9514C105.619 59.9733 105.3 59.1701 104.663 58.5451C104.025 57.917 103.246 57.6014 102.325 57.6014C101.383 57.6014 100.594 57.917 99.9566 58.5451Z" fill="#F9CF01"/>
        <path d="M127.939 53.8389L121.189 60.6201L128.601 68.0326H122.295L116.626 62.3639V68.0326H111.732V44.2451H116.626V58.7951L121.576 53.8389H127.939Z" fill="#F9CF01"/>
    </g>
    <defs>
        <clipPath id="clip0_1_582">
            <rect width="143" height="81" fill="white"/>
        </clipPath>
    </defs>
</svg>
