<svg width="214" height="214" viewBox="0 0 214 214" fill="none" xmlns="http://www.w3.org/2000/svg">
    <rect width="214" height="214" rx="12" fill="#60B238"/>
    <rect x="16" y="16" width="182" height="182" rx="12" fill="#F5F5F5"/>
    <g clip-path="url(#clip0_235_612)">
        <path d="M147.759 47.8991H164.064V64.2034H147.759V47.8991ZM90.6941 31.5947H98.8463V39.7469H90.6941V31.5947ZM98.8463 39.7469H115.151V47.8991H98.8463V39.7469ZM115.151 47.8991H123.303V56.0513H115.151V47.8991ZM115.151 31.5947H123.303V39.7469H115.151V31.5947ZM106.998 56.0513H115.151V64.2034H106.998V56.0513ZM98.8463 64.2034H106.998V72.3556H98.8463V64.2034ZM115.151 64.2034H123.303V72.3556H115.151V64.2034ZM115.151 80.5078H123.303V88.66H115.151V80.5078ZM106.998 137.573H115.151V145.725H106.998V137.573ZM98.8463 145.725H106.998V153.877H98.8463V145.725ZM90.6941 153.877H98.8463V162.03H90.6941V153.877ZM106.998 153.877H115.151V162.03H106.998V153.877ZM106.998 170.182H115.151V178.334H106.998V170.182ZM106.998 88.66H115.151V137.573H106.998V88.66ZM82.542 88.66H90.6941V96.8121H82.542V88.66ZM66.2376 88.66H74.3898V96.8121H66.2376V88.66ZM49.9333 88.66H58.0854V96.8121H49.9333V88.66ZM41.7811 104.964H49.9333V113.116H41.7811V104.964ZM58.0854 104.964H66.2376V113.116H58.0854V104.964ZM74.3898 104.964H82.542V113.116H74.3898V104.964ZM82.542 113.116H90.6941V121.269H82.542V113.116ZM90.6941 121.269H98.8463V129.421H90.6941V121.269ZM98.8463 129.421H106.998V137.573H98.8463V129.421ZM90.6941 137.573H98.8463V145.725H90.6941V137.573ZM155.912 145.725H164.064V153.877H155.912V145.725ZM147.759 153.877H155.912V162.03H147.759V153.877ZM164.064 153.877H172.216V162.03H164.064V153.877ZM164.064 170.182H172.216V178.334H164.064V170.182ZM139.607 145.725H147.759V153.877H139.607V145.725ZM155.912 162.03H164.064V170.182H155.912V162.03ZM115.151 162.03H147.759V170.182H115.151V162.03ZM131.455 137.573H180.368V145.725H131.455V137.573ZM49.9333 113.116H58.0854V121.269H49.9333V113.116ZM33.6289 96.8121H82.542V104.964H33.6289V96.8121ZM172.216 88.66H180.368V96.8121H172.216V88.66ZM155.912 88.66H164.064V96.8121H155.912V88.66ZM139.607 88.66H147.759V96.8121H139.607V88.66ZM131.455 104.964H139.607V113.116H131.455V104.964ZM147.759 104.964H155.912V113.116H147.759V104.964ZM164.064 104.964H172.216V113.116H164.064V104.964ZM172.216 113.116H180.368V121.269H172.216V113.116ZM139.607 113.116H147.759V121.269H139.607V113.116ZM115.151 121.269H123.303V129.421H115.151V121.269ZM131.455 121.269H139.607V129.421H131.455V121.269ZM147.759 121.269H155.912V129.421H147.759V121.269ZM155.912 129.421H164.064V137.573H155.912V129.421ZM123.303 129.421H131.455V137.573H123.303V129.421Z" fill="#101820"/>
        <path d="M98.8473 96.8121H172.217V104.964H98.8473V96.8121ZM90.6951 47.8991H98.8473V113.116H90.6951V47.8991ZM172.217 39.7469V72.3556H139.608V39.7469H172.217ZM180.369 31.5947H131.456V80.5078H180.369V31.5947ZM49.9342 47.8991H66.2386V64.2034H49.9342V47.8991Z" fill="#101820"/>
        <path d="M74.3898 39.7469V72.3556H41.7811V39.7469H74.3898ZM82.542 31.5947H33.6289V80.5078H82.542V31.5947ZM49.9333 145.725H66.2376V162.03H49.9333V145.725Z" fill="#101820"/>
        <path d="M74.3898 137.573V170.181H41.7811V137.573H74.3898ZM82.542 129.421H33.6289V178.334H82.542V129.421Z" fill="#101820"/>
    </g>
    <defs>
        <clipPath id="clip0_235_612">
            <rect width="150" height="150" fill="white" transform="translate(32 32)"/>
        </clipPath>
    </defs>
</svg>
