<svg width="45" height="45" viewBox="0 0 45 45" fill="none" xmlns="http://www.w3.org/2000/svg">
    <path d="M37.9688 0H7.03125C3.148 0 0 3.148 0 7.03125V37.9688C0 41.852 3.148 45 7.03125 45H37.9688C41.852 45 45 41.852 45 37.9688V7.03125C45 3.148 41.852 0 37.9688 0Z" fill="white" fill-opacity="0.1"/>
    <path d="M33.75 22.5C33.75 16.3125 28.6875 11.25 22.5 11.25C16.3125 11.25 11.25 16.3125 11.25 22.5C11.25 28.125 15.3281 32.7656 20.6719 33.6094V25.7344H17.8594V22.5H20.6719V19.9687C20.6719 17.1562 22.3594 15.6094 24.8906 15.6094C26.1563 15.6094 27.4219 15.8906 27.4219 15.8906V18.7031H26.0156C24.6094 18.7031 24.1875 19.5469 24.1875 20.3906V22.5H27.2812L26.7188 25.7344H24.0469V33.75C29.6719 32.9062 33.75 28.125 33.75 22.5Z" fill="white"/>
</svg>
