<svg width="45" height="45" viewBox="0 0 45 45" fill="none" xmlns="http://www.w3.org/2000/svg">
    <path d="M0 7.03125C0 3.148 3.148 0 7.03125 0H37.9688C41.852 0 45 3.148 45 7.03125V37.9688C45 41.852 41.852 45 37.9688 45H7.03125C3.148 45 0 41.852 0 37.9688V7.03125Z" fill="white" fill-opacity="0.1"/>
    <path d="M20.3883 20.11V19.2341C20.0883 19.194 19.7832 19.169 19.4681 19.169C15.7121 19.164 12.6562 22.2224 12.6562 25.9866C12.6562 28.2941 13.8066 30.3364 15.567 31.5728C14.4317 30.3564 13.7365 28.7196 13.7365 26.9276C13.7365 23.2185 16.7073 20.1951 20.3883 20.11Z" fill="#25F4EE"/>
    <path d="M20.5534 30.0409C22.2288 30.0409 23.5992 28.7044 23.6593 27.0426L23.6643 12.191H26.375C26.3199 11.8857 26.2899 11.5704 26.2899 11.25H22.5889L22.5839 26.1015C22.5239 27.7634 21.1535 29.0998 19.4781 29.0998C18.958 29.0998 18.4678 28.9697 18.0327 28.7394C18.5929 29.5253 19.5131 30.0409 20.5534 30.0409Z" fill="#25F4EE"/>
    <path d="M31.4414 17.2317V16.4058C30.4062 16.4058 29.4459 16.1004 28.6357 15.5698C29.3559 16.3958 30.3311 16.9965 31.4414 17.2317Z" fill="#25F4EE"/>
    <path d="M28.6356 15.5696C27.8454 14.6637 27.3703 13.4824 27.3703 12.1909H26.3801C26.6351 13.6025 27.4754 14.8138 28.6356 15.5696Z" fill="#FE2C55"/>
    <path d="M19.4731 22.8681C17.7576 22.8681 16.3622 24.2646 16.3622 25.9815C16.3622 27.1779 17.0424 28.219 18.0327 28.7396C17.6626 28.229 17.4425 27.6034 17.4425 26.9226C17.4425 25.2057 18.8379 23.8091 20.5534 23.8091C20.8735 23.8091 21.1835 23.8642 21.4736 23.9543V20.1701C21.1735 20.13 20.8685 20.105 20.5534 20.105C20.4984 20.105 20.4483 20.11 20.3933 20.11V23.0132C20.0982 22.9231 19.7932 22.8681 19.4731 22.8681Z" fill="#FE2C55"/>
    <path d="M31.4413 17.2314V20.1096C29.5207 20.1096 27.7403 19.494 26.2898 18.4528V25.9862C26.2898 29.7454 23.234 32.8088 19.473 32.8088C18.0226 32.8088 16.6723 32.3483 15.567 31.5724C16.8123 32.9089 18.5878 33.7498 20.5533 33.7498C24.3093 33.7498 27.3701 30.6914 27.3701 26.9272V19.3938C28.8205 20.435 30.601 21.0507 32.5215 21.0507V17.3466C32.1464 17.3466 31.7863 17.3065 31.4413 17.2314Z" fill="#FE2C55"/>
    <path d="M26.2898 25.9862V18.4528C27.7403 19.494 29.5207 20.1097 31.4413 20.1097V17.2315C30.3309 16.9963 29.3557 16.3956 28.6355 15.5696C27.4752 14.8138 26.64 13.6025 26.3749 12.1909H23.6641L23.6591 27.0424C23.5992 28.7042 22.2287 30.0407 20.5533 30.0407C19.513 30.0407 18.5978 29.5252 18.0276 28.7443C17.0374 28.2187 16.3572 27.1826 16.3572 25.9862C16.3572 24.2693 17.7526 22.8728 19.468 22.8728C19.7881 22.8728 20.0982 22.9278 20.3883 23.0179V20.1147C16.7073 20.1948 13.7365 23.2181 13.7365 26.9273C13.7365 28.7192 14.4317 30.3511 15.567 31.5725C16.6723 32.3483 18.0226 32.8088 19.473 32.8088C23.2291 32.8088 26.2898 29.7454 26.2898 25.9862Z" fill="white"/>
</svg>
