<svg width="54" height="49" viewBox="0 0 54 49" fill="none" xmlns="http://www.w3.org/2000/svg">
    <path d="M47.4375 23.0422C47.4375 23.0422 47.4594 22.9984 47.5016 22.9125C47.5438 22.8281 47.6125 22.7015 47.6906 22.5375C47.8469 22.2109 48.0734 21.7312 48.3 21.1109C48.3609 20.9594 48.4172 20.7937 48.4766 20.6234C48.5328 20.4515 48.5906 20.2719 48.6453 20.0844C48.7047 19.8984 48.7563 19.7015 48.8109 19.5C48.8609 19.2953 48.9141 19.0844 48.9609 18.8672C49.1516 17.9953 49.2953 17.0094 49.3469 15.9437C49.3969 14.8797 49.3516 13.7359 49.1609 12.5734C48.9719 11.4125 48.6313 10.2359 48.1094 9.14217C47.5844 8.04998 46.8703 7.04998 45.9719 6.23123C45.0734 5.41248 43.9844 4.77654 42.7672 4.33904C42.6922 4.30935 42.6141 4.28435 42.5359 4.25935L42.3047 4.18123C42.1484 4.13435 41.9922 4.08748 41.8328 4.04373L41.5922 3.98279L41.4719 3.95154C41.4813 3.95154 41.4313 3.94217 41.4875 3.9531L41.4703 3.94842L41.4344 3.94217L41.3641 3.92654L41.0844 3.86873L40.8641 3.82967L40.7531 3.81092L40.6328 3.79373C40.5531 3.78279 40.4719 3.76873 40.3922 3.75935C40.2313 3.74217 40.0703 3.72029 39.9078 3.70935C39.5844 3.68123 39.2609 3.67185 38.9375 3.67342C37.6406 3.67967 36.3469 3.91717 35.1234 4.3281C33.9 4.73592 32.7422 5.29998 31.6984 5.94842C30.6516 6.59373 29.7094 7.3156 28.8891 8.04529C28.4781 8.41092 28.0953 8.7781 27.7453 9.1406C27.3938 9.5031 27.0703 9.86092 26.7813 10.2109C26.4906 10.5578 26.2266 10.8937 25.9984 11.2156C25.7672 11.5359 25.5625 11.8375 25.3906 12.1187C25.0422 12.6797 24.8078 13.15 24.6594 13.4781C24.5859 13.6437 24.5297 13.7703 24.4969 13.8578C24.4609 13.9453 24.4438 13.9906 24.4438 13.9906C24.4438 13.9906 24.4453 13.9422 24.4484 13.8484C24.4516 13.7531 24.4609 13.614 24.4797 13.4297C24.5203 13.0656 24.6047 12.5265 24.7969 11.8578C24.8938 11.5265 25.0141 11.1578 25.1672 10.7672C25.3219 10.3765 25.5016 9.95779 25.7203 9.52185C25.9406 9.08748 26.1922 8.63123 26.4813 8.16404C26.7719 7.69685 27.1 7.22029 27.4672 6.73748C28.2047 5.77498 29.1016 4.79685 30.1813 3.88123C31.2578 2.96717 32.5203 2.11404 33.9641 1.44685C35.4047 0.778104 37.0391 0.303104 38.7625 0.16248C39.1922 0.128104 39.6266 0.11248 40.0625 0.120292C40.2813 0.120292 40.5 0.132792 40.7188 0.14373C40.8281 0.14998 40.9375 0.160917 41.0469 0.170292L41.2109 0.184355L41.3844 0.204667L41.7313 0.248417L42.0156 0.290605L42.0859 0.301542L42.1219 0.30623L42.1906 0.31873L42.35 0.346855L42.6719 0.407792C42.8859 0.451542 43.1 0.501542 43.3141 0.551542C43.5266 0.610917 43.7406 0.660917 43.9531 0.731229C45.6484 1.24217 47.2938 2.14998 48.6063 3.39529C49.2594 4.0156 49.8406 4.70467 50.3156 5.43904C50.7969 6.17029 51.1781 6.94373 51.4781 7.72029C52.0688 9.28123 52.3156 10.8594 52.3297 12.325C52.3469 13.7922 52.1375 15.1547 51.8063 16.3578C51.4766 17.5625 51.0203 18.6094 50.5344 19.4797C50.0469 20.3515 49.5266 21.0453 49.0609 21.5734C48.5922 22.1015 48.1828 22.4672 47.8906 22.7015C47.7469 22.8219 47.6313 22.9015 47.5547 22.9578C47.4766 23.014 47.4375 23.0422 47.4375 23.0422Z" fill="#2B59FF"/>
    <path d="M24.5141 8.17188C24.5141 8.17188 24.4641 8.12657 24.3656 8.03907C24.2672 7.95157 24.1172 7.82344 23.925 7.65938C23.7297 7.49532 23.4875 7.29844 23.1984 7.07657C23.0547 6.96407 22.8969 6.84844 22.7266 6.72657C22.5594 6.60469 22.3781 6.47813 22.1844 6.35001C21.7953 6.09532 21.3609 5.82501 20.875 5.56251C20.3875 5.30469 19.8547 5.04532 19.2719 4.82188C18.6875 4.60157 18.0594 4.40001 17.3891 4.26094C16.7188 4.12188 16.0094 4.03282 15.275 4.02188C14.5391 4.00938 13.7781 4.07188 13.0047 4.21563C12.9078 4.23594 12.8109 4.25157 12.7141 4.27501L12.5688 4.30626C12.5719 4.30626 12.5344 4.31251 12.5719 4.30626L12.5109 4.32032L12.4297 4.34063C12.3219 4.36563 12.2141 4.39219 12.1063 4.41719C12.0156 4.44376 11.9234 4.47032 11.8313 4.49688C11.7406 4.52032 11.6406 4.55469 11.5453 4.58438C11.4484 4.61563 11.35 4.64532 11.2547 4.68126C11.1594 4.71407 11.0625 4.74844 10.9672 4.78282C10.8719 4.82032 10.7766 4.85782 10.6813 4.89532C9.92344 5.20782 9.19063 5.60001 8.52344 6.09532C7.85313 6.58751 7.24219 7.17188 6.72032 7.84376C5.66875 9.17969 4.975 10.8609 4.71875 12.6594C4.45938 14.4578 4.63125 16.3609 5.2 18.1359C5.34375 18.5781 5.50938 19.0156 5.69844 19.4406C5.8875 19.8656 6.10469 20.2781 6.3375 20.6797C6.57188 21.0797 6.82813 21.4656 7.10469 21.8359L7.15625 21.9047L7.18282 21.9406C7.15782 21.9094 7.18438 21.9422 7.18282 21.9406L7.19844 21.9609L7.32188 22.1188L7.44531 22.2781L7.55469 22.4109C7.69219 22.5844 7.85469 22.7719 8.0125 22.9516C9.28438 24.4047 10.7875 25.6734 12.3484 26.8547C13.9094 28.0375 15.5219 29.1422 17.0359 30.2734C18.55 31.4016 19.9641 32.5594 21.1625 33.7578C21.7609 34.3547 22.3078 34.9594 22.7953 35.5594C23.2797 36.1625 23.7094 36.7563 24.0797 37.3344C24.8203 38.4938 25.3344 39.5719 25.6813 40.4781C25.8594 40.9297 25.9938 41.3406 26.1031 41.6984C26.1578 41.8766 26.2031 42.0453 26.2469 42.1969C26.2906 42.35 26.3203 42.4906 26.3516 42.6141C26.4156 42.8625 26.4516 43.0578 26.4797 43.1875C26.5063 43.3172 26.5188 43.3828 26.5188 43.3828C26.5188 43.3828 26.4859 43.3234 26.4219 43.2078C26.3578 43.0922 26.2656 42.9203 26.1375 42.7C26.0125 42.4781 25.8531 42.2094 25.6625 41.8969C25.5641 41.7422 25.4625 41.575 25.3469 41.4C25.2891 41.3141 25.2313 41.2234 25.1703 41.1313C25.1094 41.0391 25.0422 40.9469 24.9766 40.85C24.9109 40.7531 24.8422 40.6563 24.7688 40.5578C24.6969 40.4578 24.6234 40.3578 24.5484 40.2531C24.4719 40.1516 24.3922 40.0469 24.3109 39.9406C24.2297 39.8344 24.1422 39.7297 24.0563 39.6203C23.7047 39.1891 23.3188 38.7328 22.875 38.2766C22 37.3516 20.9219 36.4141 19.6672 35.4922C18.4109 34.5688 16.9688 33.6703 15.3906 32.7438C13.8156 31.8125 12.0984 30.8516 10.3438 29.7047C9.90469 29.4188 9.46563 29.1172 9.025 28.8047C8.80625 28.6469 8.58594 28.4859 8.36719 28.3234C8.15 28.1563 7.93125 27.9875 7.71563 27.8141C6.84844 27.1203 5.99844 26.3547 5.20469 25.5063C5.00625 25.2906 4.81406 25.0813 4.61094 24.8422L4.4625 24.6688L4.20781 24.3594L4.16094 24.3031L4.12656 24.2578L4.05625 24.1672C3.68281 23.6859 3.33594 23.1828 3.01875 22.6594C2.69844 22.1359 2.41719 21.5906 2.1625 21.0313C1.90938 20.4719 1.6875 19.8984 1.50313 19.3109C0.759377 16.9688 0.581252 14.4453 1.02188 12.0453C1.23906 10.8453 1.61563 9.67813 2.13906 8.59063C2.40156 8.04688 2.69844 7.52344 3.03281 7.02813C3.36563 6.53282 3.73282 6.06407 4.12813 5.62813C4.525 5.19376 4.95 4.79376 5.39532 4.42813C5.84219 4.06251 6.31094 3.73751 6.79063 3.44844C7.75157 2.86876 8.76407 2.45469 9.76407 2.17032C9.89063 2.13751 10.0141 2.10313 10.1391 2.07032C10.2641 2.03907 10.3891 2.01094 10.5141 1.98282C10.6375 1.95313 10.7625 1.93126 10.8859 1.90782C11.0109 1.88438 11.1297 1.85938 11.2609 1.84063C11.3891 1.82188 11.5188 1.80157 11.6453 1.78126C11.7609 1.76719 11.8688 1.75626 11.9813 1.74376L12.0641 1.73594L12.1047 1.73126L12.125 1.72813C12.1766 1.72032 12.1531 1.72501 12.1703 1.72344L12.3516 1.70782C12.4734 1.69532 12.5938 1.69063 12.7141 1.68126C13.1953 1.65313 13.6703 1.65469 14.1344 1.67969C14.5984 1.70469 15.0516 1.75626 15.4906 1.82969C15.9297 1.90157 16.3531 1.99844 16.7609 2.11407C17.1672 2.22657 17.5578 2.35938 17.9281 2.50782C18.6688 2.80313 19.3391 3.14532 19.9297 3.51719C20.5219 3.88594 21.0438 4.27032 21.4969 4.65626C21.9516 5.03907 22.3422 5.41563 22.675 5.77032C22.8422 5.94844 22.9953 6.11876 23.1375 6.28126C23.2766 6.44532 23.4063 6.60157 23.5219 6.74844C23.7547 7.04219 23.9406 7.30001 24.0875 7.51094C24.2344 7.72188 24.3391 7.88907 24.4094 8.00157C24.4797 8.11407 24.5141 8.17188 24.5141 8.17188Z" fill="#2B59FF"/>
    <path d="M51.1437 23.0406C47.2453 35.2391 32.0312 34.4781 37.1109 32.1281C42.5 29.6344 43.0453 22.7922 40.7734 25.7375C37.9484 29.4 34.5531 28.3922 30.3484 32.925C25.0578 38.625 28.8656 48.4047 28.8656 48.4047C30.0953 42.2625 38.9 39.1469 46.6109 34.0547C54.3203 28.9625 55.0406 10.8406 51.1437 23.0406Z" fill="#F9CF01"/>
</svg>
