<svg xmlns="http://www.w3.org/2000/svg" xmlns:xlink="http://www.w3.org/1999/xlink" width="500" zoomAndPan="magnify"
     viewBox="0 0 375 374.999991" height="500" preserveAspectRatio="xMidYMid meet" version="1.0">
    <defs>
        <g/>
        <clipPath id="0b309b6974">
            <path d="M 243 82.742188 L 314 82.742188 L 314 141 L 243 141 Z M 243 82.742188 " clip-rule="nonzero"/>
        </clipPath>
        <clipPath id="59e6b71f30">
            <path d="M 251.324219 129.628906 L 315.945312 129.628906 L 315.945312 203.492188 L 251.324219 203.492188 Z M 251.324219 129.628906 "
                  clip-rule="nonzero"/>
        </clipPath>
    </defs>
    <g clip-path="url(#0b309b6974)">
        <path fill="#38b6ff"
              d="M 301.09375 140.105469 C 301.09375 140.105469 301.148438 139.996094 301.253906 139.78125 C 301.359375 139.570312 301.53125 139.253906 301.726562 138.84375 C 302.117188 138.027344 302.683594 136.828125 303.25 135.277344 C 303.402344 134.898438 303.542969 134.484375 303.691406 134.058594 C 303.832031 133.628906 303.976562 133.179688 304.113281 132.710938 C 304.261719 132.246094 304.390625 131.753906 304.527344 131.25 C 304.652344 130.738281 304.785156 130.210938 304.902344 129.667969 C 305.378906 127.488281 305.738281 125.023438 305.867188 122.359375 C 305.992188 119.699219 305.878906 116.839844 305.402344 113.933594 C 304.929688 111.03125 304.078125 108.089844 302.773438 105.355469 C 301.460938 102.625 299.675781 100.125 297.429688 98.078125 C 295.183594 96.03125 292.460938 94.441406 289.417969 93.347656 C 289.230469 93.273438 289.035156 93.210938 288.839844 93.148438 L 288.261719 92.953125 C 287.871094 92.835938 287.480469 92.71875 287.082031 92.609375 L 286.480469 92.457031 L 286.179688 92.378906 C 286.203125 92.378906 286.078125 92.355469 286.21875 92.382812 L 286.175781 92.371094 L 286.085938 92.355469 L 285.910156 92.316406 L 285.210938 92.171875 L 284.660156 92.074219 L 284.382812 92.027344 L 284.082031 91.984375 C 283.882812 91.957031 283.679688 91.921875 283.480469 91.898438 C 283.078125 91.855469 282.675781 91.800781 282.269531 91.773438 C 281.460938 91.703125 280.652344 91.679688 279.84375 91.683594 C 276.601562 91.699219 273.367188 92.292969 270.308594 93.320312 C 267.25 94.339844 264.355469 95.75 261.746094 97.371094 C 259.128906 98.984375 256.773438 100.789062 254.722656 102.613281 C 253.695312 103.527344 252.738281 104.445312 251.863281 105.351562 C 250.984375 106.257812 250.175781 107.152344 249.453125 108.027344 C 248.726562 108.894531 248.066406 109.734375 247.496094 110.539062 C 246.917969 111.339844 246.40625 112.09375 245.976562 112.796875 C 245.105469 114.199219 244.519531 115.375 244.148438 116.195312 C 243.964844 116.609375 243.824219 116.925781 243.742188 117.144531 C 243.652344 117.363281 243.609375 117.476562 243.609375 117.476562 C 243.609375 117.476562 243.613281 117.355469 243.621094 117.121094 C 243.628906 116.882812 243.652344 116.535156 243.699219 116.074219 C 243.800781 115.164062 244.011719 113.816406 244.492188 112.144531 C 244.734375 111.316406 245.035156 110.394531 245.417969 109.417969 C 245.804688 108.441406 246.253906 107.394531 246.800781 106.304688 C 247.351562 105.21875 247.980469 104.078125 248.703125 102.910156 C 249.429688 101.742188 250.25 100.550781 251.167969 99.34375 C 253.011719 96.9375 255.253906 94.492188 257.953125 92.203125 C 260.644531 89.917969 263.800781 87.785156 267.410156 86.117188 C 271.011719 84.445312 275.097656 83.257812 279.40625 82.90625 C 280.480469 82.820312 281.566406 82.78125 282.65625 82.800781 C 283.203125 82.800781 283.75 82.832031 284.296875 82.859375 C 284.570312 82.875 284.84375 82.902344 285.117188 82.925781 L 285.527344 82.960938 L 285.960938 83.011719 L 286.828125 83.121094 L 287.539062 83.226562 L 287.714844 83.253906 L 287.804688 83.265625 L 287.976562 83.296875 L 288.375 83.367188 L 289.179688 83.519531 C 289.714844 83.628906 290.25 83.753906 290.785156 83.878906 C 291.316406 84.027344 291.851562 84.152344 292.382812 84.328125 C 296.621094 85.605469 300.734375 87.875 304.015625 90.988281 C 305.648438 92.539062 307.101562 94.261719 308.289062 96.097656 C 309.492188 97.925781 310.445312 99.859375 311.195312 101.800781 C 312.671875 105.703125 313.289062 109.648438 313.324219 113.3125 C 313.367188 116.980469 312.84375 120.386719 312.015625 123.394531 C 311.191406 126.40625 310.050781 129.023438 308.835938 131.199219 C 307.617188 133.378906 306.316406 135.113281 305.152344 136.433594 C 303.980469 137.753906 302.957031 138.667969 302.226562 139.253906 C 301.867188 139.554688 301.578125 139.753906 301.386719 139.894531 C 301.191406 140.035156 301.09375 140.105469 301.09375 140.105469 "
              fill-opacity="1" fill-rule="nonzero"/>
    </g>
    <path fill="#38b6ff"
          d="M 243.785156 102.929688 C 243.785156 102.929688 243.660156 102.816406 243.414062 102.597656 C 243.167969 102.378906 242.792969 102.058594 242.3125 101.648438 C 241.824219 101.238281 241.21875 100.746094 240.496094 100.191406 C 240.136719 99.910156 239.742188 99.621094 239.316406 99.316406 C 238.898438 99.011719 238.445312 98.695312 237.960938 98.375 C 236.988281 97.738281 235.902344 97.0625 234.6875 96.40625 C 233.46875 95.761719 232.136719 95.113281 230.679688 94.554688 C 229.21875 94.003906 227.648438 93.5 225.972656 93.152344 C 224.296875 92.804688 222.523438 92.582031 220.6875 92.554688 C 218.847656 92.523438 216.945312 92.679688 215.011719 93.039062 C 214.769531 93.089844 214.527344 93.128906 214.285156 93.1875 L 213.921875 93.265625 C 213.929688 93.265625 213.835938 93.28125 213.929688 93.265625 L 213.777344 93.300781 L 213.574219 93.351562 C 213.304688 93.414062 213.035156 93.480469 212.765625 93.542969 C 212.539062 93.609375 212.308594 93.675781 212.078125 93.742188 C 211.851562 93.800781 211.601562 93.886719 211.363281 93.960938 C 211.121094 94.039062 210.875 94.113281 210.636719 94.203125 C 210.398438 94.285156 210.15625 94.371094 209.917969 94.457031 C 209.679688 94.550781 209.441406 94.644531 209.203125 94.738281 C 207.308594 95.519531 205.476562 96.5 203.808594 97.738281 C 202.132812 98.96875 200.605469 100.429688 199.300781 102.109375 C 196.671875 105.449219 194.9375 109.652344 194.296875 114.148438 C 193.648438 118.644531 194.078125 123.402344 195.5 127.839844 C 195.859375 128.945312 196.273438 130.039062 196.746094 131.101562 C 197.21875 132.164062 197.761719 133.195312 198.34375 134.199219 C 198.929688 135.199219 199.570312 136.164062 200.261719 137.089844 L 200.390625 137.261719 L 200.457031 137.351562 C 200.394531 137.273438 200.460938 137.355469 200.457031 137.351562 L 200.496094 137.402344 L 200.804688 137.796875 L 201.113281 138.195312 L 201.386719 138.527344 C 201.730469 138.960938 202.136719 139.429688 202.53125 139.878906 C 205.710938 143.511719 209.46875 146.683594 213.371094 149.636719 C 217.273438 152.59375 221.304688 155.355469 225.089844 158.183594 C 228.875 161.003906 232.410156 163.898438 235.40625 166.894531 C 236.902344 168.386719 238.269531 169.898438 239.488281 171.398438 C 240.699219 172.90625 241.773438 174.390625 242.699219 175.835938 C 244.550781 178.734375 245.835938 181.429688 246.703125 183.695312 C 247.148438 184.824219 247.484375 185.851562 247.757812 186.746094 C 247.894531 187.191406 248.007812 187.613281 248.117188 187.992188 C 248.226562 188.375 248.300781 188.726562 248.378906 189.035156 C 248.539062 189.65625 248.628906 190.144531 248.699219 190.46875 C 248.765625 190.792969 248.796875 190.957031 248.796875 190.957031 C 248.796875 190.957031 248.714844 190.808594 248.554688 190.519531 C 248.394531 190.230469 248.164062 189.800781 247.84375 189.25 C 247.53125 188.695312 247.132812 188.023438 246.65625 187.242188 C 246.410156 186.855469 246.15625 186.4375 245.867188 186 C 245.722656 185.785156 245.578125 185.558594 245.425781 185.328125 C 245.273438 185.097656 245.105469 184.867188 244.941406 184.625 C 244.777344 184.382812 244.605469 184.140625 244.421875 183.894531 C 244.242188 183.644531 244.058594 183.394531 243.871094 183.132812 C 243.679688 182.878906 243.480469 182.617188 243.277344 182.351562 C 243.074219 182.085938 242.855469 181.824219 242.640625 181.550781 C 241.761719 180.472656 240.796875 179.332031 239.6875 178.191406 C 237.5 175.878906 234.804688 173.535156 231.667969 171.230469 C 228.527344 168.921875 224.921875 166.675781 220.976562 164.359375 C 217.039062 162.03125 212.746094 159.628906 208.359375 156.761719 C 207.261719 156.046875 206.164062 155.292969 205.0625 154.511719 C 204.515625 154.117188 203.964844 153.714844 203.417969 153.308594 C 202.875 152.890625 202.328125 152.46875 201.789062 152.035156 C 199.621094 150.300781 197.496094 148.386719 195.511719 146.265625 C 195.015625 145.726562 194.535156 145.203125 194.027344 144.605469 L 193.65625 144.171875 L 193.019531 143.398438 L 192.902344 143.257812 L 192.816406 143.144531 L 192.640625 142.917969 C 191.707031 141.714844 190.839844 140.457031 190.046875 139.148438 C 189.246094 137.839844 188.542969 136.476562 187.90625 135.078125 C 187.273438 133.679688 186.71875 132.246094 186.257812 130.777344 C 184.398438 124.921875 183.953125 118.613281 185.054688 112.613281 C 185.597656 109.613281 186.539062 106.695312 187.847656 103.976562 C 188.503906 102.617188 189.246094 101.308594 190.082031 100.070312 C 190.914062 98.832031 191.832031 97.660156 192.820312 96.570312 C 193.8125 95.484375 194.875 94.484375 195.988281 93.570312 C 197.105469 92.65625 198.277344 91.84375 199.476562 91.121094 C 201.878906 89.671875 204.410156 88.636719 206.910156 87.925781 C 207.226562 87.84375 207.535156 87.757812 207.847656 87.675781 C 208.160156 87.597656 208.472656 87.527344 208.785156 87.457031 C 209.09375 87.382812 209.40625 87.328125 209.714844 87.269531 C 210.027344 87.210938 210.324219 87.148438 210.652344 87.101562 C 210.972656 87.054688 211.296875 87.003906 211.613281 86.953125 C 211.902344 86.917969 212.171875 86.890625 212.453125 86.859375 L 212.660156 86.839844 L 212.761719 86.828125 L 212.8125 86.820312 C 212.941406 86.800781 212.882812 86.8125 212.925781 86.808594 L 213.378906 86.769531 C 213.683594 86.738281 213.984375 86.726562 214.285156 86.703125 C 215.488281 86.632812 216.675781 86.636719 217.835938 86.699219 C 218.996094 86.761719 220.128906 86.890625 221.226562 87.074219 C 222.324219 87.253906 223.382812 87.496094 224.402344 87.785156 C 225.417969 88.066406 226.394531 88.398438 227.320312 88.769531 C 229.171875 89.507812 230.847656 90.363281 232.324219 91.292969 C 233.804688 92.214844 235.109375 93.175781 236.242188 94.140625 C 237.378906 95.097656 238.355469 96.039062 239.1875 96.925781 C 239.605469 97.371094 239.988281 97.796875 240.34375 98.203125 C 240.691406 98.613281 241.015625 99.003906 241.304688 99.371094 C 241.886719 100.105469 242.351562 100.75 242.71875 101.277344 C 243.085938 101.804688 243.347656 102.222656 243.523438 102.503906 C 243.699219 102.785156 243.785156 102.929688 243.785156 102.929688 "
          fill-opacity="1" fill-rule="nonzero"/>
    <g clip-path="url(#59e6b71f30)">
        <path fill="#ffde59"
              d="M 310.359375 140.101562 C 300.613281 170.597656 262.578125 168.695312 275.277344 162.820312 C 288.75 156.585938 290.113281 139.480469 284.433594 146.84375 C 277.371094 156 268.882812 153.480469 258.371094 164.8125 C 245.144531 179.0625 254.664062 203.511719 254.664062 203.511719 C 257.738281 188.15625 279.75 180.367188 299.027344 167.636719 C 318.300781 154.90625 320.101562 109.601562 310.359375 140.101562 "
              fill-opacity="1" fill-rule="nonzero"/>
    </g>
    <g fill="#38b6ff" fill-opacity="1">
        <g transform="translate(37.500002, 177.331644)">
            <g>
                <path d="M 0.546875 -45.640625 L 0.546875 -57.046875 L 40.65625 -57.046875 L 40.65625 -45.640625 L 27.109375 -45.640625 L 27.109375 0 L 14.109375 0 L 14.109375 -45.640625 Z M 0.546875 -45.640625 "/>
            </g>
        </g>
    </g>
    <g fill="#38b6ff" fill-opacity="1">
        <g transform="translate(75.256816, 177.331644)">
            <g>
                <path d="M 13.140625 -35.484375 L 21.78125 -16.1875 L 30.421875 -35.484375 L 44.953125 -35.484375 L 25.9375 0 L 17.640625 0 L -1.390625 -35.484375 Z M 13.140625 -35.484375 "/>
            </g>
        </g>
    </g>
    <g fill="#38b6ff" fill-opacity="1">
        <g transform="translate(115.364807, 177.331644)">
            <g>
                <path d="M 5.328125 -55.25 C 6.753906 -56.6875 8.457031 -57.40625 10.4375 -57.40625 C 12.425781 -57.40625 14.132812 -56.6875 15.5625 -55.25 C 16.988281 -53.820312 17.703125 -52.117188 17.703125 -50.140625 C 17.703125 -48.160156 16.988281 -46.453125 15.5625 -45.015625 C 14.132812 -43.585938 12.425781 -42.875 10.4375 -42.875 C 8.457031 -42.875 6.753906 -43.585938 5.328125 -45.015625 C 3.898438 -46.453125 3.1875 -48.160156 3.1875 -50.140625 C 3.1875 -52.117188 3.898438 -53.820312 5.328125 -55.25 Z M 4.15625 -35.484375 L 4.15625 0 L 16.390625 0 L 16.390625 -35.484375 Z M 4.15625 -35.484375 "/>
            </g>
        </g>
    </g>
    <g fill="#38b6ff" fill-opacity="1">
        <g transform="translate(132.790827, 177.331644)">
            <g>
                <path d="M 31.046875 -35.484375 L 45.15625 -35.484375 L 17.28125 17.984375 L 3.1875 17.984375 L 15.421875 -5.53125 L -1.390625 -35.484375 L 12.71875 -35.484375 L 22.609375 -17.28125 Z M 31.046875 -35.484375 "/>
            </g>
        </g>
    </g>
    <g fill="#ffde59" fill-opacity="1">
        <g transform="translate(37.500002, 242.58164)">
            <g>
                <path d="M 13.140625 -35.484375 L 21.78125 -16.1875 L 30.421875 -35.484375 L 44.953125 -35.484375 L 25.9375 0 L 17.640625 0 L -1.390625 -35.484375 Z M 13.140625 -35.484375 "/>
            </g>
        </g>
    </g>
    <g fill="#ffde59" fill-opacity="1">
        <g transform="translate(77.607993, 242.58164)">
            <g>
                <path d="M 23.03125 -26.484375 C 20.726562 -26.484375 18.742188 -25.628906 17.078125 -23.921875 C 15.421875 -22.222656 14.59375 -20.171875 14.59375 -17.765625 C 14.59375 -15.328125 15.421875 -13.253906 17.078125 -11.546875 C 18.742188 -9.835938 20.726562 -8.984375 23.03125 -8.984375 C 24.132812 -8.984375 25.179688 -9.117188 26.171875 -9.390625 C 27.160156 -9.671875 27.890625 -9.953125 28.359375 -10.234375 L 28.96875 -10.65625 L 33.125 -2.140625 C 32.800781 -1.910156 32.347656 -1.625 31.765625 -1.28125 C 31.191406 -0.9375 29.878906 -0.46875 27.828125 0.125 C 25.785156 0.726562 23.585938 1.03125 21.234375 1.03125 C 16.023438 1.03125 11.445312 -0.796875 7.5 -4.453125 C 3.5625 -8.117188 1.59375 -12.515625 1.59375 -17.640625 C 1.59375 -22.796875 3.5625 -27.226562 7.5 -30.9375 C 11.445312 -34.65625 16.023438 -36.515625 21.234375 -36.515625 C 23.585938 -36.515625 25.753906 -36.238281 27.734375 -35.6875 C 29.710938 -35.132812 31.117188 -34.582031 31.953125 -34.03125 L 33.125 -33.1875 L 28.96875 -24.828125 C 27.445312 -25.929688 25.46875 -26.484375 23.03125 -26.484375 Z M 23.03125 -26.484375 "/>
            </g>
        </g>
    </g>
    <g fill="#ffde59" fill-opacity="1">
        <g transform="translate(108.103806, 242.58164)">
            <g>
                <path d="M 4.15625 0 L 4.15625 -59.46875 L 16.390625 -59.46875 L 16.390625 -31.75 L 16.53125 -31.75 C 19.707031 -34.925781 23.09375 -36.515625 26.6875 -36.515625 C 28.445312 -36.515625 30.191406 -36.28125 31.921875 -35.8125 C 33.648438 -35.351562 35.304688 -34.640625 36.890625 -33.671875 C 38.484375 -32.710938 39.773438 -31.34375 40.765625 -29.5625 C 41.753906 -27.789062 42.25 -25.726562 42.25 -23.375 L 42.25 0 L 30.015625 0 L 30.015625 -20.0625 C 30.015625 -21.90625 29.425781 -23.515625 28.25 -24.890625 C 27.070312 -26.273438 25.539062 -26.96875 23.65625 -26.96875 C 21.8125 -26.96875 20.140625 -26.253906 18.640625 -24.828125 C 17.140625 -23.398438 16.390625 -21.8125 16.390625 -20.0625 L 16.390625 0 Z M 4.15625 0 "/>
            </g>
        </g>
    </g>
    <g fill="#ffde59" fill-opacity="1">
        <g transform="translate(150.355516, 242.58164)">
            <g>
                <path d="M 31.046875 -35.484375 L 45.15625 -35.484375 L 17.28125 17.984375 L 3.1875 17.984375 L 15.421875 -5.53125 L -1.390625 -35.484375 L 12.71875 -35.484375 L 22.609375 -17.28125 Z M 31.046875 -35.484375 "/>
            </g>
        </g>
    </g>
    <g fill="#ffde59" fill-opacity="1">
        <g transform="translate(190.670966, 242.58164)">
            <g>
                <path d="M 4.15625 0 L 4.15625 -35.484375 L 16.390625 -35.484375 L 16.390625 -31.75 L 16.53125 -31.75 C 19.707031 -34.925781 23.09375 -36.515625 26.6875 -36.515625 C 28.445312 -36.515625 30.191406 -36.28125 31.921875 -35.8125 C 33.648438 -35.351562 35.304688 -34.640625 36.890625 -33.671875 C 38.484375 -32.710938 39.773438 -31.34375 40.765625 -29.5625 C 41.753906 -27.789062 42.25 -25.726562 42.25 -23.375 L 42.25 0 L 30.015625 0 L 30.015625 -20.0625 C 30.015625 -21.90625 29.425781 -23.515625 28.25 -24.890625 C 27.070312 -26.273438 25.539062 -26.96875 23.65625 -26.96875 C 21.8125 -26.96875 20.140625 -26.253906 18.640625 -24.828125 C 17.140625 -23.398438 16.390625 -21.8125 16.390625 -20.0625 L 16.390625 0 Z M 4.15625 0 "/>
            </g>
        </g>
    </g>
    <g fill="#ffde59" fill-opacity="1">
        <g transform="translate(232.922688, 242.58164)">
            <g>
                <path d="M 7.5 -4.21875 C 3.5625 -7.71875 1.59375 -12.210938 1.59375 -17.703125 C 1.59375 -23.191406 3.644531 -27.695312 7.75 -31.21875 C 11.851562 -34.75 16.921875 -36.515625 22.953125 -36.515625 C 28.898438 -36.515625 33.914062 -34.738281 38 -31.1875 C 42.082031 -27.632812 44.125 -23.140625 44.125 -17.703125 C 44.125 -12.265625 42.128906 -7.78125 38.140625 -4.25 C 34.148438 -0.726562 29.085938 1.03125 22.953125 1.03125 C 16.597656 1.03125 11.445312 -0.71875 7.5 -4.21875 Z M 16.96875 -23.71875 C 15.382812 -22.15625 14.59375 -20.148438 14.59375 -17.703125 C 14.59375 -15.253906 15.351562 -13.257812 16.875 -11.71875 C 18.394531 -10.175781 20.398438 -9.40625 22.890625 -9.40625 C 25.285156 -9.40625 27.253906 -10.1875 28.796875 -11.75 C 30.347656 -13.320312 31.125 -15.304688 31.125 -17.703125 C 31.125 -20.148438 30.328125 -22.15625 28.734375 -23.71875 C 27.140625 -25.289062 25.191406 -26.078125 22.890625 -26.078125 C 20.535156 -26.078125 18.5625 -25.289062 16.96875 -23.71875 Z M 16.96875 -23.71875 "/>
            </g>
        </g>
    </g>
    <g fill="#ffde59" fill-opacity="1">
        <g transform="translate(275.174409, 242.58164)">
            <g>
                <path d="M 44.671875 -35.484375 L 27.796875 -18.53125 L 46.328125 0 L 30.5625 0 L 16.390625 -14.171875 L 16.390625 0 L 4.15625 0 L 4.15625 -59.46875 L 16.390625 -59.46875 L 16.390625 -23.09375 L 28.765625 -35.484375 Z M 44.671875 -35.484375 "/>
            </g>
        </g>
    </g>
</svg>